<?xml version="1.0" encoding="utf-8"?>
<!-- Generator: Adobe Illustrator 23.0.6, SVG Export Plug-In . SVG Version: 6.00 Build 0)  -->
<svg version="1.1" id="レイヤー_1" xmlns="http://www.w3.org/2000/svg" xmlns:xlink="http://www.w3.org/1999/xlink" x="0px"
	 y="0px" viewBox="0 0 595 842" style="enable-background:new 0 0 595 842;" xml:space="preserve">
<style type="text/css">
	.st0{clip-path:url(#SVGID_2_);}
	.st1{clip-path:url(#SVGID_4_);}
	.st2{clip-path:url(#SVGID_6_);fill:#F2F2F2;stroke:#F2F2F2;stroke-miterlimit:10;}
	.st3{clip-path:url(#SVGID_8_);fill:#F2F2F2;stroke:#F2F2F2;stroke-miterlimit:10;}
	.st4{clip-path:url(#SVGID_10_);fill:#FFFFFF;}
	.st5{clip-path:url(#SVGID_12_);fill:#FFFFFF;}
	.st6{clip-path:url(#SVGID_14_);}
	.st7{clip-path:url(#SVGID_16_);fill:#FFFFFF;}
	.st8{clip-path:url(#SVGID_18_);fill:#FFFFFF;}
	.st9{clip-path:url(#SVGID_20_);fill:#F2F2F2;stroke:#F2F2F2;stroke-miterlimit:10;}
	.st10{clip-path:url(#SVGID_22_);fill:#F2F2F2;stroke:#F2F2F2;stroke-miterlimit:10;}
	.st11{clip-path:url(#SVGID_24_);fill:#FFFFFF;}
	.st12{clip-path:url(#SVGID_26_);fill:#F2F2F2;stroke:#F2F2F2;stroke-miterlimit:10;}
	.st13{clip-path:url(#SVGID_28_);fill:#F2F2F2;stroke:#F2F2F2;stroke-miterlimit:10;}
	.st14{clip-path:url(#SVGID_30_);fill:#F2F2F2;stroke:#F2F2F2;stroke-miterlimit:10;}
	.st15{clip-path:url(#SVGID_32_);fill:#FFFFFF;}
	.st16{clip-path:url(#SVGID_34_);fill:#F2F2F2;stroke:#F2F2F2;stroke-miterlimit:10;}
	.st17{clip-path:url(#SVGID_36_);fill:#F2F2F2;stroke:#F2F2F2;stroke-miterlimit:10;}
	.st18{clip-path:url(#SVGID_38_);fill:#F2F2F2;stroke:#F2F2F2;stroke-miterlimit:10;}
	.st19{clip-path:url(#SVGID_40_);fill:#F2F2F2;stroke:#F2F2F2;stroke-miterlimit:10;}
	.st20{clip-path:url(#SVGID_42_);fill:#F2F2F2;stroke:#F2F2F2;stroke-miterlimit:10;}
	.st21{clip-path:url(#SVGID_44_);fill:#F2F2F2;stroke:#F2F2F2;stroke-miterlimit:10;}
	.st22{clip-path:url(#SVGID_46_);fill:#F2F2F2;stroke:#F2F2F2;stroke-miterlimit:10;}
	.st23{clip-path:url(#SVGID_48_);fill:#FFFFFF;}
	.st24{clip-path:url(#SVGID_50_);fill:#F2F2F2;stroke:#F2F2F2;stroke-miterlimit:10;}
	.st25{clip-path:url(#SVGID_54_);fill:#FFFFFF;}
	.st26{clip-path:url(#SVGID_56_);fill:#F2F2F2;stroke:#F2F2F2;stroke-miterlimit:10;}
	.st27{clip-path:url(#SVGID_60_);fill:#FFFFFF;}
	.st28{clip-path:url(#SVGID_62_);fill:#F2F2F2;stroke:#F2F2F2;stroke-miterlimit:10;}
	.st29{fill:none;}
</style>
<g>
	<defs>
		<rect id="SVGID_1_" width="595" height="842"/>
	</defs>
	<clipPath id="SVGID_2_">
		<use xlink:href="#SVGID_1_"  style="overflow:visible;"/>
	</clipPath>
	<g class="st0">
		<defs>
			<rect id="SVGID_3_" y="24.33" width="595" height="793.34"/>
		</defs>
		<clipPath id="SVGID_4_">
			<use xlink:href="#SVGID_3_"  style="overflow:visible;"/>
		</clipPath>
		<g class="st1">
			<defs>
				<rect id="SVGID_5_" y="24.33" width="595" height="793.34"/>
			</defs>
			<clipPath id="SVGID_6_">
				<use xlink:href="#SVGID_5_"  style="overflow:visible;"/>
			</clipPath>
			<path class="st2" d="M280.81,474.22c0.72,0,1.44,0.14,2.13,0.43c1.94,0.8,3.26,2.62,3.43,4.71c0.36,4.65,1.41,4.65,3.69,4.65
				c3.87,0,6.63-1.59,8.69-5c1.09-1.8,3.1-2.84,5.19-2.68c1.12,0.08,2.28,0.12,3.46,0.12c5.42,0,13.93-0.88,23.73-5.09
				c2.73-1.17,5.9,0.01,7.21,2.68c0.1,0.21,0.19,0.43,0.27,0.65c0.9-2.24,1.66-4.49,2.25-6.76c0.34-1.29,1.13-2.42,2.24-3.18
				c26.44-18.21,25.17-78.67,15.67-105.52c-2.01-5.68-4.53-10.97-7.5-15.72c-1.31-2.1-1.08-4.81,0.57-6.66
				c1.65-1.84,4.31-2.39,6.55-1.33c4.44,2.1,8.57,3.17,12.28,3.17c1.74,0,3.41-0.24,4.98-0.71c7.01-2.1,11.19-5.88,13.34-8.79
				c-1.11-0.01-2.45-0.02-4.05-0.02c-2.71,0-5.8,0.02-9.08,0.03c-3.74,0.02-7.73,0.04-11.72,0.04c-7.11,0-17.34-0.06-24.08-0.54
				c-1.09-0.08-2.13-0.48-3-1.14c-8.6-6.62-18.63-10.14-29.81-10.48c-0.83-0.03-1.65-0.04-2.47-0.04
				c-23.31,0-43.72,10.32-54.62,27.6c-0.22,0.35-0.48,0.68-0.78,0.97c-1.4,1.41-3.2,2.91-5.17,4.37c1.54,0.85,2.64,2.41,2.85,4.24
				c0.3,2.65,2,3.67,2.19,3.78c2.5,1.4,3.54,4.46,2.4,7.09c-1.13,2.59-4,3.92-6.69,3.13c0,0-0.01,0-0.01,0.01
				c-1.93,1.61-4.67,1.72-6.71,0.33c-1.15,0.3-3.4,1.56-4.89,3.4c-0.85,1.06-1.07,1.86-1.02,2.15c0.06,0.34,0.16,0.54,0.22,0.61
				c1.72,1.88,1.95,4.69,0.56,6.82c-6.4,9.78-9.78,21.14-9.78,32.85c0,6.47,1.04,12.88,3.09,19.03c0.86,2.55-0.23,5.35-2.59,6.65
				c-2.35,1.3-5.3,0.73-7.01-1.35c-0.94-1.15-1.46-1.59-1.64-1.73c-1.8-1.39-3.67-2.12-5.39-2.12c-1.53,0-2.86,0.6-3.75,1.69
				c-1.16,1.42-1.51,3.56-1,6.04c1.64,7.94,16.92,24.41,26.41,26.69c0.46,0.11,0.81,0.17,1.07,0.19c0.12-1.18-0.2-3.41-0.87-4.92
				c-0.37-0.86-0.88-1.95-1.48-3.19c-1.21-2.49-0.41-5.49,1.88-7.04c2.28-1.56,5.36-1.21,7.24,0.82
				c10.56,11.43,24.79,18.23,40.21,19.23C279.92,474.28,280.37,474.22,280.81,474.22z M233.45,497.23c-1.79,0-4.19,0.51-4.33,4.93
				c-0.05,1.49,1.13,4.34,4.58,7.9c6.9,7.13,21.11,14.81,36,14.81c3.16,0,6.24-0.35,9.16-1.04c23.38-5.54,45.34-22.42,56.29-41.97
				l-0.51,0.27c-12.6,21.83-38.66,38.11-61.3,38.11l0,0c-12.08,0-21.64-4.88-26.91-13.75C242.62,500.09,237.17,497.23,233.45,497.23
				z M269.7,536.03c-18.23,0-35.25-9.15-44.02-18.21c-5.21-5.38-7.88-10.92-7.72-16.02c0.31-9.4,6.53-15.73,15.49-15.73
				c8.52,0,17.17,5.64,22.57,14.72c4.08,6.86,11.67,8.3,17.32,8.3l0,0c13.4,0,31.61-8.14,44.21-22.28c-3.94,0.6-7.38,0.8-10.15,0.8
				c-0.36,0-0.73-0.01-1.09-0.01c-4.04,4.9-9.7,7.57-16.25,7.57c-4.34,0-11.3-1.41-13.9-9.88c-11.97-1.21-23.27-5.38-33.04-12.12
				c-0.31,1.01-0.75,2-1.35,2.93c-1.92,2.93-5.09,4.55-8.92,4.55c-1.24,0-2.59-0.17-4-0.51c-14.32-3.44-32.28-23.43-34.74-35.29
				c-1.2-5.82-0.04-11.27,3.28-15.34c3-3.69,7.52-5.8,12.4-5.8c1.01,0,2.03,0.09,3.03,0.26c-0.43-3.17-0.64-6.37-0.64-9.58
				c0-12.74,3.37-25.13,9.78-36.04c-0.25-0.69-0.45-1.42-0.6-2.19c-0.71-3.8,0.53-7.86,3.49-11.43c0.45-0.54,0.93-1.06,1.44-1.55
				c-4.37-1.44-6.33-4.54-6.64-7.3c-0.42-3.82,2.1-7.23,5.99-8.09c2.31-0.52,10.88-5.33,15.44-9.67
				c13.49-20.9,38.39-33.05,66.51-32.19c12.98,0.39,24.7,4.34,34.88,11.74c6.36,0.37,15.29,0.41,21.67,0.41
				c3.97,0,7.94-0.02,11.67-0.04c3.3-0.01,6.4-0.03,9.13-0.03c8.45,0,10.55,0.16,11.84,0.48c3.07,0.77,5.11,3.49,5.19,6.94
				c0.15,6.52-7.09,18.42-23.12,23.23c-2.6,0.78-5.35,1.18-8.18,1.18c-1.21,0-2.44-0.07-3.68-0.22c0.82,1.92,1.59,3.88,2.3,5.89
				c10.21,28.88,12.66,93.64-18.18,117.2c-8.42,28.46-37.37,54.32-69.68,61.97C277.68,535.57,273.73,536.03,269.7,536.03z"/>
		</g>
	</g>
	<g class="st0">
		<defs>
			<rect id="SVGID_7_" y="24.33" width="595" height="793.34"/>
		</defs>
		<clipPath id="SVGID_8_">
			<use xlink:href="#SVGID_7_"  style="overflow:visible;"/>
		</clipPath>
		<path class="st3" d="M280.54,481.88c-0.02,0-0.05,0-0.08,0c-36.2-1.58-64.57-31.22-64.57-67.49c0-21.45,9.85-41.15,27.02-54.05
			c0.82-0.61,1.99-0.45,2.61,0.37c0.61,0.82,0.45,1.99-0.37,2.6c-16.23,12.19-25.54,30.81-25.54,51.08
			c0,34.27,26.8,62.28,61.02,63.77c1.02,0.05,1.82,0.91,1.77,1.94C282.36,481.1,281.54,481.88,280.54,481.88z"/>
	</g>
	<g class="st0">
		<defs>
			<rect id="SVGID_9_" y="24.33" width="595" height="793.34"/>
		</defs>
		<clipPath id="SVGID_10_">
			<use xlink:href="#SVGID_9_"  style="overflow:visible;"/>
		</clipPath>
		<path class="st4" d="M280.54,480.02c-34.93-1.52-62.79-30.32-62.79-65.63c0-21.49,10.32-40.57,26.28-52.56
			c11.32,5.87,20.22-4.9,27.25-10.05c20.13,5.15,52.55,2.16,74.52,41.83c3.33,6.02,3.35,13.52,3.35,20.78
			c0,6.52-0.95,12.82-2.72,18.77c-16.14-5.97-35.34,1.52-40.96,16.04C294.69,468.4,280.54,480.02,280.54,480.02z"/>
	</g>
	<g class="st0">
		<defs>
			<rect id="SVGID_11_" y="24.33" width="595" height="793.34"/>
		</defs>
		<clipPath id="SVGID_12_">
			<use xlink:href="#SVGID_11_"  style="overflow:visible;"/>
		</clipPath>
		<path class="st5" d="M312.17,409.84c0-27.79-22.31-50.35-49.99-50.8c-5.16,3.71-11.08,6.3-17.88,2.92
			c-0.27,0.1-0.54,0.19-0.81,0.29c-15.64,12.01-25.74,30.89-25.74,52.14c0,11.65,3.05,22.58,8.37,32.07
			c9.14,8.79,21.55,14.21,35.23,14.21C289.42,460.67,312.17,437.91,312.17,409.84z"/>
	</g>
	<g class="st0">
		<defs>
			<rect id="SVGID_13_" y="24.33" width="595" height="793.34"/>
		</defs>
		<clipPath id="SVGID_14_">
			<use xlink:href="#SVGID_13_"  style="overflow:visible;"/>
		</clipPath>
		<path class="st6" d="M258.49,366.04c-32.68,2.69-53.9,51.94-25,77.71c29.3,26.11,65.48-7.63,64.23-38.94
			C296.75,380.53,276.66,365.16,258.49,366.04 M228.48,388.66c9.94-15.31,28.96-27.76,49.83-12.47c-0.14-0.01-13.38,0.6-3.76,14.84
			c5.2,7.69,5.54,13.86,1.42,26.41c-1.48,6.19-1.93,8.06-3.26,14.43c-6.35-15.18-11.53-28.1-15.62-44.62
			c3.59-0.53,7.67-1.13,5.58-3.44c-0.27-0.29-19.22,1.59-19.4,1.62c-1.46,0.25-1.71,1.96-1.72,1.98c-0.15,1.35,0.1,1.33,4.2,1.09
			c1.09,5.83,1.58,8.49,4.26,17.01c-1.94,8.04-3.94,16.35-4.21,29.21c-8.64-17.19-12.1-29.13-12.75-44.06
			c1.22-0.74,2.86-0.45,3.94-1.56c0.74-0.76,1.1-2.46,0.18-2.66C233.9,385.73,231.41,388.05,228.48,388.66 M273.88,442.27
			c3.49-15.06,9.3-29.46,12.72-44.54c0.66-2.92,1.23-7.46,0.2-12.52C296.98,401.12,295.81,425.82,273.88,442.27 M244.06,446.73
			c-22.03-10.01-26.07-33.74-18.68-52.01C225.66,412.8,230.72,426.89,244.06,446.73 M256.97,448.85c-2.81,0.18-5.1,0.02-7.9-0.56
			c-0.85-8.41-1.39-18.92,2.85-37.24c7.7,19.94,16.18,34.56,16.24,34.64C266.72,446.38,262.33,448.47,256.97,448.85"/>
	</g>
	<g class="st0">
		<defs>
			<rect id="SVGID_15_" y="24.33" width="595" height="793.34"/>
		</defs>
		<clipPath id="SVGID_16_">
			<use xlink:href="#SVGID_15_"  style="overflow:visible;"/>
		</clipPath>
		<path class="st7" d="M240.89,356.95c-16.11,4.55-17.76-2.89-14.04-3.71c3.71-0.83,13.63-6.62,18.59-11.57L240.89,356.95z"/>
	</g>
	<g class="st0">
		<defs>
			<rect id="SVGID_17_" y="24.33" width="595" height="793.34"/>
		</defs>
		<clipPath id="SVGID_18_">
			<use xlink:href="#SVGID_17_"  style="overflow:visible;"/>
		</clipPath>
		<path class="st8" d="M346.26,469.34c-7.03,26.86-34.71,52.48-66.11,59.92c-27.02,6.39-57.02-14.46-56.61-27.27
			c0.47-14.43,18.59-13.64,27.68,1.65c13.93,23.42,61.57,7.02,79.34-25.62L346.26,469.34z"/>
	</g>
	<g class="st0">
		<defs>
			<rect id="SVGID_19_" y="24.33" width="595" height="793.34"/>
		</defs>
		<clipPath id="SVGID_20_">
			<use xlink:href="#SVGID_19_"  style="overflow:visible;"/>
		</clipPath>
		<path class="st9" d="M244.03,361.83c-0.18,0.13-0.36,0.28-0.54,0.42c0.27-0.1,0.54-0.19,0.81-0.29
			C244.21,361.91,244.12,361.88,244.03,361.83z"/>
	</g>
	<g class="st0">
		<defs>
			<rect id="SVGID_21_" y="24.33" width="595" height="793.34"/>
		</defs>
		<clipPath id="SVGID_22_">
			<use xlink:href="#SVGID_21_"  style="overflow:visible;"/>
		</clipPath>
		<path class="st10" d="M262.18,359.04c-0.28,0-0.55-0.02-0.83-0.02c-5.98,0-11.72,1.04-17.05,2.94
			C251.1,365.34,257.02,362.75,262.18,359.04z"/>
	</g>
	<g class="st0">
		<defs>
			<rect id="SVGID_23_" y="24.33" width="595" height="793.34"/>
		</defs>
		<clipPath id="SVGID_24_">
			<use xlink:href="#SVGID_23_"  style="overflow:visible;"/>
		</clipPath>
		<path class="st11" d="M302.87,481.84c10.08,0.9,26.64-0.97,43.39-12.5c30.22-20.81,27.27-85.11,17.77-111.97
			c-9.51-26.86-29.34-45.04-56.61-45.87c-27.27-0.82-50,11.16-61.98,30.17c-8.08,12.82-2.07,19.83,1.65,21.48
			c3.72,1.66,19.42-4.54,23.97-12.81c10.74,6.61,22.72,3.72,33.05,0.42l19.84,5.78c-15.71-6.2-35.54-2.48-45.87,6.61
			c-10.33,9.09-3.3,15.71,4.55,16.53c7.85,0.83,23.13-6.2,35.12-3.72c11.98,2.48,15.66,6.87,28.47,18.44c0,0,7.02,28.1,0,38.88
			c-12.18-7.03-34.2,0.93-40.75,15.92L302.87,481.84z"/>
	</g>
	<g class="st0">
		<defs>
			<rect id="SVGID_25_" y="24.33" width="595" height="793.34"/>
		</defs>
		<clipPath id="SVGID_26_">
			<use xlink:href="#SVGID_25_"  style="overflow:visible;"/>
		</clipPath>
		<path class="st12" d="M346.43,435.02c-0.18,0-0.35-0.03-0.53-0.08c-0.98-0.29-1.54-1.33-1.25-2.31
			c1.75-5.89,2.64-12.03,2.64-18.24c0-6.91-1.1-13.7-3.26-20.19c-0.32-0.98,0.2-2.03,1.18-2.35c0.97-0.33,2.03,0.2,2.35,1.17
			c2.29,6.87,3.45,14.06,3.45,21.37c0,6.57-0.94,13.07-2.8,19.3C347.97,434.5,347.23,435.02,346.43,435.02z"/>
	</g>
	<g class="st0">
		<defs>
			<rect id="SVGID_27_" y="24.33" width="595" height="793.34"/>
		</defs>
		<clipPath id="SVGID_28_">
			<use xlink:href="#SVGID_27_"  style="overflow:visible;"/>
		</clipPath>
		<path class="st13" d="M306.18,450.13c-0.28,0-0.56-0.06-0.82-0.19c-0.92-0.45-1.3-1.57-0.85-2.49
			c4.99-10.18,14.4-16.68,25.8-17.84c9.41-0.95,18.78,2.01,22.79,7.19c0.63,0.82,0.48,1.99-0.33,2.61
			c-0.82,0.63-1.99,0.48-2.61-0.33c-3.22-4.16-11.39-6.58-19.48-5.77c-5.93,0.61-16.79,3.45-22.83,15.78
			C307.52,449.75,306.86,450.13,306.18,450.13z"/>
	</g>
	<g class="st0">
		<defs>
			<rect id="SVGID_29_" y="24.33" width="595" height="793.34"/>
		</defs>
		<clipPath id="SVGID_30_">
			<use xlink:href="#SVGID_29_"  style="overflow:visible;"/>
		</clipPath>
		<path class="st14" d="M307.34,483.89c-1.86,0-3.42-0.09-4.63-0.2c-1.02-0.09-1.78-0.99-1.69-2.01c0.09-1.03,1.02-1.78,2.02-1.69
			c6.52,0.57,23.68,0.55,42.17-12.18c29.1-20.03,26.54-83.06,17.07-109.82c-9.77-27.6-29.79-43.87-54.92-44.63
			c-25.73-0.78-48.29,10.18-60.35,29.3c-3.29,5.23-4.43,9.98-3.29,13.75c0.83,2.74,2.75,4.43,4.13,5.04
			c2.34,1.05,17.25-4.13,21.58-12c0.25-0.45,0.66-0.77,1.15-0.9c0.5-0.13,1.02-0.06,1.45,0.21c10.17,6.26,21.61,3.4,31.52,0.23
			c0.98-0.31,2.02,0.22,2.34,1.2c0.31,0.98-0.23,2.03-1.21,2.34c-10.93,3.5-22.46,5.91-33.01,0.31
			c-5.86,8.15-20.75,14.05-25.33,12.01c-2.2-0.98-4.98-3.42-6.18-7.36c-1.02-3.37-1.21-9.02,3.71-16.81
			c12.77-20.25,36.54-31.86,63.61-31.03c26.74,0.81,48,17.97,58.3,47.1c4.46,12.59,8.07,35.72,6.12,59.03
			c-1.56,18.48-7.08,43.05-24.58,55.1C331.25,481.94,316.06,483.89,307.34,483.89z"/>
	</g>
	<g class="st0">
		<defs>
			<rect id="SVGID_31_" y="24.33" width="595" height="793.34"/>
		</defs>
		<clipPath id="SVGID_32_">
			<use xlink:href="#SVGID_31_"  style="overflow:visible;"/>
		</clipPath>
		<path class="st15" d="M339.65,323.07c-7.43-0.6-1.66,4.96,0.82,7.03c2.48,2.06,20.25,18.18,36.78,13.22
			c16.53-4.96,21.49-18.59,18.18-19.42C392.12,323.07,354.94,324.31,339.65,323.07z"/>
	</g>
	<g class="st0">
		<defs>
			<rect id="SVGID_33_" y="24.33" width="595" height="793.34"/>
		</defs>
		<clipPath id="SVGID_34_">
			<use xlink:href="#SVGID_33_"  style="overflow:visible;"/>
		</clipPath>
		<path class="st16" d="M338.09,324.91c0.49,0.79,1.67,2.18,3.57,3.76l0.48,0.4c12.92,11.02,22.64,13.33,28.53,13.33l0,0
			c2.1,0,4.13-0.29,6.05-0.86c9.07-2.72,14.64-8.35,16.83-12.7c0.82-1.63,0.99-2.7,0.99-3.2c-1.24-0.13-4.45-0.19-9.57-0.19
			c-2.73,0-5.83,0.02-9.13,0.03c-3.75,0.02-7.76,0.04-11.76,0.04c-7.4,0-18.01-0.06-24.58-0.59
			C338.92,324.88,338.42,324.88,338.09,324.91z M370.67,346.12L370.67,346.12c-6.51,0-17.16-2.47-30.94-14.22l-0.45-0.37
			c-6.09-5.08-5.25-7.4-4.97-8.16c0.52-1.46,1.98-2.2,4.3-2.2c0.36,0,0.75,0.02,1.19,0.05c6.44,0.52,16.94,0.58,24.28,0.58
			c3.99,0,7.99-0.02,11.74-0.03c3.31-0.02,6.42-0.04,9.15-0.04c7.87,0,10.01,0.14,10.91,0.37c1.44,0.36,2.33,1.64,2.37,3.41
			c0.11,4.51-5.96,15.24-20.47,19.59C375.52,345.78,373.13,346.12,370.67,346.12z"/>
	</g>
	<g class="st0">
		<defs>
			<rect id="SVGID_35_" y="24.33" width="595" height="793.34"/>
		</defs>
		<clipPath id="SVGID_36_">
			<use xlink:href="#SVGID_35_"  style="overflow:visible;"/>
		</clipPath>
		<path class="st17" d="M231.92,360.28c-4.21,0-6.31-1.27-7.32-2.29c-1.1-1.12-1.52-2.59-1.13-3.93c0.39-1.33,1.5-2.31,2.97-2.64
			c3.21-0.71,12.8-6.18,17.68-11.07c0.73-0.72,1.91-0.72,2.63,0c0.73,0.73,0.73,1.91,0,2.63c-5.12,5.12-15.33,11.14-19.5,12.07
			c-0.17,0.04-0.23,0.1-0.23,0.1c0.02-0.01,0.13,0.2,0.54,0.48c0.77,0.52,3.98,2.03,12.83-0.46c0.99-0.28,2.02,0.29,2.3,1.28
			c0.28,0.99-0.3,2.02-1.29,2.3C237.42,359.86,234.33,360.28,231.92,360.28z"/>
	</g>
	<g class="st0">
		<defs>
			<rect id="SVGID_37_" y="24.33" width="595" height="793.34"/>
		</defs>
		<clipPath id="SVGID_38_">
			<use xlink:href="#SVGID_37_"  style="overflow:visible;"/>
		</clipPath>
		<path class="st18" d="M267.75,339.6c-2.96,2.22-2.06,4.96,1.24,5.37c3.31,0.42,3.56,0.63,6.61-1.65c3.31-2.48,3.72-6.61,0-6.2
			C271.88,337.54,269.4,338.36,267.75,339.6z"/>
	</g>
	<g class="st0">
		<defs>
			<rect id="SVGID_39_" y="24.33" width="595" height="793.34"/>
		</defs>
		<clipPath id="SVGID_40_">
			<use xlink:href="#SVGID_39_"  style="overflow:visible;"/>
		</clipPath>
		<path class="st19" d="M259.07,341.25c0,2.06-1.66,3.72-3.71,3.72c-2.06,0-3.72-1.66-3.72-3.72c0-2.05,1.66-3.71,3.72-3.71
			C257.41,337.54,259.07,339.2,259.07,341.25z"/>
	</g>
	<g class="st0">
		<defs>
			<rect id="SVGID_41_" y="24.33" width="595" height="793.34"/>
		</defs>
		<clipPath id="SVGID_42_">
			<use xlink:href="#SVGID_41_"  style="overflow:visible;"/>
		</clipPath>
		<path class="st20" d="M302.05,330.92c0,2.06-1.67,3.72-3.72,3.72c-2.06,0-3.72-1.66-3.72-3.72c0-2.05,1.66-3.71,3.72-3.71
			C300.38,327.21,302.05,328.87,302.05,330.92z"/>
	</g>
	<g class="st0">
		<defs>
			<rect id="SVGID_43_" y="24.33" width="595" height="793.34"/>
		</defs>
		<clipPath id="SVGID_44_">
			<use xlink:href="#SVGID_43_"  style="overflow:visible;"/>
		</clipPath>
		<path class="st21" d="M269.83,532.29c-14.46,0-28.65-6.19-37.64-13.55c-6.84-5.59-10.67-11.72-10.51-16.82
			c0.2-6.11,3.28-10.39,8.46-11.72c6.57-1.7,16.48,2.05,22.68,12.49c5.11,8.59,14.4,10.26,21.25,10.11
			c20.42-0.39,44-15.72,54.85-35.67c0.5-0.9,1.63-1.23,2.53-0.74c0.9,0.49,1.23,1.62,0.74,2.52c-11.44,21.03-36.4,37.2-58.05,37.61
			c-11.16,0.18-19.81-4.03-24.51-11.93c-5.27-8.87-13.33-12.14-18.57-10.79c-3.51,0.9-5.52,3.83-5.66,8.24
			c-0.13,3.88,3.29,9.04,9.14,13.83c10.52,8.6,28.57,15.51,45.18,11.58c30.53-7.23,57.76-31.87,64.74-58.58
			c0.26-0.99,1.27-1.59,2.27-1.33c0.99,0.26,1.59,1.28,1.33,2.27c-7.31,27.97-35.69,53.73-67.48,61.26
			C277.03,531.91,273.42,532.29,269.83,532.29z"/>
	</g>
	<g class="st0">
		<defs>
			<rect id="SVGID_45_" y="24.33" width="595" height="793.34"/>
		</defs>
		<clipPath id="SVGID_46_">
			<use xlink:href="#SVGID_45_"  style="overflow:visible;"/>
		</clipPath>
		<path class="st22" d="M350.39,399.31c-0.44,0-0.89-0.16-1.25-0.48l-1.47-1.33c-12.02-10.87-19.28-17.44-30.3-19.72
			c-6.63-1.37-14.54,0.39-21.52,1.93c-5.3,1.18-9.86,2.2-13.42,1.82c-5.46-0.57-9.79-3.45-11.02-7.32
			c-0.87-2.73-0.63-7.11,5.44-12.45c11.35-9.99,32.34-13.04,47.78-6.95c0.96,0.38,1.42,1.46,1.05,2.41
			c-0.38,0.96-1.46,1.43-2.42,1.05c-14.25-5.63-33.56-2.87-43.95,6.28c-3.56,3.13-5.11,6.16-4.36,8.53
			c0.78,2.43,3.94,4.34,7.87,4.75c2.96,0.31,7.46-0.69,12.22-1.75c7.35-1.63,15.68-3.48,23.09-1.94
			c12.01,2.49,19.98,9.69,32.04,20.6l1.47,1.33c0.76,0.68,0.82,1.86,0.13,2.62C351.4,399.1,350.9,399.31,350.39,399.31z"/>
	</g>
	<g class="st0">
		<defs>
			<rect id="SVGID_47_" y="24.33" width="595" height="793.34"/>
		</defs>
		<clipPath id="SVGID_48_">
			<use xlink:href="#SVGID_47_"  style="overflow:visible;"/>
		</clipPath>
		<path class="st23" d="M218.58,432.57c-10.09-7.76-21.48-0.83-19.01,11.16c2.04,9.84,18.68,28.13,30.58,30.98
			c10.33,2.48,8.24-8.66,6.61-12.39C233.87,455.71,223.95,436.7,218.58,432.57z"/>
	</g>
	<g class="st0">
		<defs>
			<rect id="SVGID_49_" y="24.33" width="595" height="793.34"/>
		</defs>
		<clipPath id="SVGID_50_">
			<use xlink:href="#SVGID_49_"  style="overflow:visible;"/>
		</clipPath>
		<path class="st24" d="M209.79,431.15c-2.67,0-5.03,1.09-6.64,3.06c-1.87,2.3-2.5,5.55-1.76,9.14c1.9,9.16,18.17,26.91,29.19,29.56
			c0.85,0.2,1.61,0.3,2.27,0.3c1.72,0,2.36-0.67,2.69-1.18c1.35-2.05,0.58-6.53-0.48-8.96c-3.05-6.98-12.73-25.26-17.61-29.03
			C214.99,432.15,212.34,431.15,209.79,431.15z M232.85,476.93L232.85,476.93c-0.95,0-2.01-0.14-3.13-0.41
			c-12.58-3.02-29.79-21.9-31.97-32.42c-0.97-4.7-0.07-9.05,2.52-12.24c2.3-2.81,5.76-4.43,9.52-4.43c3.38,0,6.81,1.27,9.93,3.67
			c6.12,4.71,16.5,25.35,18.75,30.47c0.93,2.13,2.78,8.53,0.19,12.5C237.8,475.37,236.1,476.93,232.85,476.93z"/>
	</g>
	<g class="st0">
		<defs>
			<rect id="SVGID_51_" y="24.33" width="595" height="793.34"/>
		</defs>
		<clipPath id="SVGID_52_">
			<use xlink:href="#SVGID_51_"  style="overflow:visible;"/>
		</clipPath>
	</g>
	<g class="st0">
		<defs>
			<rect id="SVGID_53_" y="24.33" width="595" height="793.34"/>
		</defs>
		<clipPath id="SVGID_54_">
			<use xlink:href="#SVGID_53_"  style="overflow:visible;"/>
		</clipPath>
		<path class="st25" d="M306.18,475.13c0,0-2.48,14.46-16.12,14.46c-13.63,0-7.85-16.53-9.5-27.27c-1.65-10.74-8.26-24.79,1.65-31.4
			c9.92-6.61,21.9,12.81,23.97,20.24C309.07,461.08,308.66,467.28,306.18,475.13z"/>
	</g>
	<g class="st0">
		<defs>
			<rect id="SVGID_55_" y="24.33" width="595" height="793.34"/>
		</defs>
		<clipPath id="SVGID_56_">
			<use xlink:href="#SVGID_55_"  style="overflow:visible;"/>
		</clipPath>
		<path class="st26" d="M286.52,432.04c-1.03,0-1.99,0.31-2.93,0.94c-5.86,3.9-4.68,10.97-2.2,21.3c0.61,2.55,1.24,5.19,1.62,7.66
			c0.5,3.21,0.38,6.8,0.26,10.26c-0.18,5.39-0.36,10.95,1.96,13.35c1.01,1.05,2.6,1.56,4.83,1.56c11.34,0,13.59-11.9,13.68-12.41
			c0.02-0.1,0.04-0.21,0.07-0.32c2.21-7,2.87-12.66-0.01-22.52C301.96,445.23,293.2,432.04,286.52,432.04z M290.06,492.07
			c-3.6,0-6.43-1.03-8.4-3.07c-3.78-3.91-3.56-10.55-3.35-16.96c0.11-3.24,0.22-6.59-0.2-9.35c-0.35-2.26-0.93-4.69-1.54-7.26
			c-2.3-9.59-4.9-20.46,4.27-26.58c1.76-1.17,3.67-1.76,5.68-1.76c10.77,0,20.26,16.96,22.05,23.41
			c3.18,10.92,2.43,17.54,0.02,25.22C307.54,481.48,302.38,492.07,290.06,492.07z"/>
	</g>
	<g class="st0">
		<defs>
			<rect id="SVGID_57_" y="24.33" width="595" height="793.34"/>
		</defs>
		<clipPath id="SVGID_58_">
			<use xlink:href="#SVGID_57_"  style="overflow:visible;"/>
		</clipPath>
	</g>
	<g class="st0">
		<defs>
			<rect id="SVGID_59_" y="24.33" width="595" height="793.34"/>
		</defs>
		<clipPath id="SVGID_60_">
			<use xlink:href="#SVGID_59_"  style="overflow:visible;"/>
		</clipPath>
		<path class="st27" d="M240.07,363.15c-4.13-1.65-14.46,5.37-13.22,11.99c1.23,6.61,8.67,6.61,13.63,1.65
			C245.44,371.83,244.07,364.75,240.07,363.15z"/>
	</g>
	<g class="st0">
		<defs>
			<rect id="SVGID_61_" y="24.33" width="595" height="793.34"/>
		</defs>
		<clipPath id="SVGID_62_">
			<use xlink:href="#SVGID_61_"  style="overflow:visible;"/>
		</clipPath>
		<path class="st28" d="M238.65,364.77c-2,0-5.66,1.8-8.08,4.71c-0.88,1.07-2.3,3.17-1.9,5.31c0.57,3.04,2.58,3.67,4.17,3.67
			c2.09,0,4.45-1.11,6.33-2.99c2.08-2.09,3.02-4.84,2.5-7.37c-0.32-1.57-1.18-2.78-2.29-3.22
			C239.19,364.81,238.94,364.77,238.65,364.77z M232.84,382.18L232.84,382.18c-4.05,0-7.05-2.57-7.82-6.7
			c-0.51-2.7,0.45-5.67,2.7-8.37c2.91-3.51,7.51-6.06,10.93-6.06c0.77,0,1.48,0.13,2.11,0.38c2.28,0.91,3.98,3.12,4.55,5.92
			c0.78,3.76-0.54,7.78-3.51,10.75C239.2,380.69,235.94,382.18,232.84,382.18z"/>
	</g>
	<g class="st0">
		<defs>
			<rect id="SVGID_63_" y="24.33" width="595" height="793.34"/>
		</defs>
		<clipPath id="SVGID_64_">
			<use xlink:href="#SVGID_63_"  style="overflow:visible;"/>
		</clipPath>
	</g>
	<g class="st0">
		<defs>
			<rect id="SVGID_65_" y="24.33" width="595" height="793.34"/>
		</defs>
		<clipPath id="SVGID_66_">
			<use xlink:href="#SVGID_65_"  style="overflow:visible;"/>
		</clipPath>
	</g>
	<g class="st0">
		<defs>
			<rect id="SVGID_67_" y="24.33" width="595" height="793.34"/>
		</defs>
		<clipPath id="SVGID_68_">
			<use xlink:href="#SVGID_67_"  style="overflow:visible;"/>
		</clipPath>
	</g>
	<g class="st0">
		<defs>
			<rect id="SVGID_69_" y="24.33" width="595" height="793.34"/>
		</defs>
		<clipPath id="SVGID_70_">
			<use xlink:href="#SVGID_69_"  style="overflow:visible;"/>
		</clipPath>
	</g>
	<g class="st0">
		<defs>
			<rect id="SVGID_71_" y="24.33" width="595" height="793.34"/>
		</defs>
		<clipPath id="SVGID_72_">
			<use xlink:href="#SVGID_71_"  style="overflow:visible;"/>
		</clipPath>
	</g>
	<g class="st0">
		<defs>
			<rect id="SVGID_73_" y="24.33" width="595" height="793.34"/>
		</defs>
		<clipPath id="SVGID_74_">
			<use xlink:href="#SVGID_73_"  style="overflow:visible;"/>
		</clipPath>
	</g>
	<g class="st0">
		<defs>
			<rect id="SVGID_75_" width="595" height="842"/>
		</defs>
		<clipPath id="SVGID_76_">
			<use xlink:href="#SVGID_75_"  style="overflow:visible;"/>
		</clipPath>
	</g>
</g>
<g>
	<path d="M209.27,550.62v3.05c-1.49-1.25-3.03-1.87-4.62-1.87c-1.75,0-3.23,0.63-4.43,1.89c-1.21,1.25-1.81,2.79-1.81,4.6
		c0,1.79,0.6,3.3,1.81,4.53c1.21,1.23,2.69,1.85,4.44,1.85c0.91,0,1.68-0.15,2.31-0.44c0.35-0.15,0.72-0.35,1.1-0.6
		c0.38-0.25,0.78-0.55,1.2-0.91v3.11c-1.47,0.83-3.02,1.25-4.64,1.25c-2.44,0-4.52-0.85-6.25-2.55c-1.72-1.72-2.58-3.79-2.58-6.21
		c0-2.17,0.72-4.11,2.16-5.82c1.77-2.09,4.06-3.13,6.87-3.13C206.36,549.37,207.84,549.79,209.27,550.62z"/>
	<path d="M212.91,558.16c0-2.4,0.88-4.47,2.64-6.19c1.75-1.72,3.86-2.59,6.32-2.59c2.43,0,4.52,0.87,6.26,2.61
		c1.75,1.74,2.62,3.83,2.62,6.27c0,2.45-0.88,4.54-2.63,6.25c-1.76,1.72-3.89,2.58-6.38,2.58c-2.2,0-4.18-0.76-5.94-2.29
		C213.88,563.11,212.91,560.89,212.91,558.16z M215.51,558.19c0,1.89,0.63,3.44,1.9,4.65c1.26,1.22,2.72,1.82,4.37,1.82
		c1.79,0,3.3-0.62,4.53-1.86c1.23-1.25,1.85-2.78,1.85-4.58c0-1.82-0.61-3.35-1.82-4.58c-1.21-1.24-2.71-1.86-4.49-1.86
		c-1.78,0-3.28,0.62-4.5,1.86C216.12,554.88,215.51,556.4,215.51,558.19z"/>
	<path d="M237.02,549.7v14.65h5.02v2.42h-7.59V549.7H237.02z"/>
	<path d="M245.65,558.16c0-2.4,0.88-4.47,2.64-6.19c1.75-1.72,3.86-2.59,6.32-2.59c2.43,0,4.52,0.87,6.26,2.61
		c1.75,1.74,2.62,3.83,2.62,6.27c0,2.45-0.88,4.54-2.63,6.25c-1.76,1.72-3.89,2.58-6.38,2.58c-2.2,0-4.18-0.76-5.94-2.29
		C246.62,563.11,245.65,560.89,245.65,558.16z M248.25,558.19c0,1.89,0.63,3.44,1.9,4.65c1.26,1.22,2.72,1.82,4.37,1.82
		c1.79,0,3.3-0.62,4.53-1.86c1.23-1.25,1.85-2.78,1.85-4.58c0-1.82-0.61-3.35-1.82-4.58c-1.21-1.24-2.71-1.86-4.49-1.86
		c-1.78,0-3.28,0.62-4.5,1.86C248.86,554.88,248.25,556.4,248.25,558.19z"/>
	<path d="M272.97,559.5l5.28,7.27h-3.15l-4.88-6.99h-0.46v6.99h-2.58V549.7h3.02c2.25,0,3.88,0.42,4.89,1.27
		c1.11,0.94,1.66,2.19,1.66,3.74c0,1.21-0.35,2.25-1.04,3.12C275.02,558.7,274.1,559.25,272.97,559.5z M269.76,557.54h0.82
		c2.44,0,3.66-0.93,3.66-2.8c0-1.75-1.19-2.62-3.56-2.62h-0.92V557.54z"/>
	<path d="M287.21,566.77l3.59-18.35l5.86,13.27l6.07-13.27l3.23,18.35h-2.64l-1.65-10.3l-5.05,11.09l-4.91-11.1l-1.83,10.31H287.21z
		"/>
	<path d="M318.99,552.12h-6.84v4.1h6.64v2.42h-6.64v5.71h6.84v2.42h-9.42V549.7h9.42V552.12z"/>
	<path d="M329.36,566.77v-18.23l12.45,13.02V549.7h2.58v18.11l-12.45-12.99v11.95H329.36z"/>
	<path d="M348.24,558.16c0-2.4,0.88-4.47,2.64-6.19c1.75-1.72,3.86-2.59,6.32-2.59c2.43,0,4.52,0.87,6.26,2.61
		c1.75,1.74,2.62,3.83,2.62,6.27c0,2.45-0.88,4.54-2.63,6.25c-1.76,1.72-3.89,2.58-6.38,2.58c-2.2,0-4.18-0.76-5.94-2.29
		C349.2,563.11,348.24,560.89,348.24,558.16z M350.83,558.19c0,1.89,0.63,3.44,1.9,4.65c1.26,1.22,2.72,1.82,4.37,1.82
		c1.79,0,3.3-0.62,4.53-1.86c1.23-1.25,1.85-2.78,1.85-4.58c0-1.82-0.61-3.35-1.82-4.58c-1.21-1.24-2.71-1.86-4.49-1.86
		c-1.78,0-3.28,0.62-4.5,1.86C351.44,554.88,350.83,556.4,350.83,558.19z"/>
	<path d="M370.79,549.7l4.44,11.41l4.64-12.24l4.44,12.24l4.72-11.41h2.8l-7.63,18.15l-4.39-12.09l-4.58,12.11L368,549.7H370.79z"/>
	<path d="M395.04,565.53c0-0.41,0.15-0.77,0.45-1.07c0.3-0.3,0.66-0.45,1.08-0.45s0.78,0.15,1.08,0.45c0.3,0.3,0.45,0.66,0.45,1.08
		c0,0.43-0.15,0.79-0.45,1.09c-0.29,0.29-0.66,0.44-1.08,0.44c-0.43,0-0.8-0.15-1.09-0.44S395.04,565.98,395.04,565.53z
		 M395.33,562.97V549.7h2.5v13.27H395.33z"/>
</g>
<rect x="243.93" y="547.55" class="st29" width="3.05" height="22.52"/>
</svg>
